
<?xml version="1.0" encoding="iso-8859-1"?>
<!DOCTYPE svg PUBLIC "-//W3C//DTD SVG 1.1//EN" "http://www.w3.org/Graphics/SVG/1.1/DTD/svg11.dtd">
<svg fill="#000000" height="800px" width="800px" version="1.1" id="Capa_1" xmlns="http://www.w3.org/2000/svg" xmlns:xlink="http://www.w3.org/1999/xlink" 
	 viewBox="0 0 325 325" xml:space="preserve">
<path d="M294.165,179.832L167.599,2.818C166.538,1.128,164.663,0,162.521,0c-0.001,0-0.001,0-0.002,0
	c-0.232,0-0.46,0.017-0.686,0.042c-0.076,0.009-0.15,0.022-0.226,0.034c-0.139,0.021-0.276,0.045-0.412,0.075
	c-0.099,0.022-0.196,0.048-0.294,0.075c-0.105,0.029-0.208,0.06-0.31,0.096c-0.114,0.038-0.227,0.078-0.338,0.123
	c-0.069,0.028-0.136,0.06-0.204,0.09c-0.957,0.43-1.804,1.1-2.432,1.976L30.831,179.83c-1.028,1.439-1.365,3.26-0.929,4.974
	c0.437,1.714,1.61,3.149,3.202,3.92c0.156,0.076,15.811,7.766,31.189,24.292c19.01,20.429,29.274,44.705,30.568,72.232H77.327
	c-3.313,0-6,2.687-6,6V319c0,3.314,2.687,6,6,6h170.342c3.314,0,6-2.686,6-6v-27.752c0-3.313-2.686-6-6-6h-17.532
	c1.295-27.527,11.559-51.804,30.567-72.231c15.378-16.526,31.031-24.216,31.179-24.287c1.598-0.768,2.773-2.201,3.213-3.918
	C295.536,183.096,295.195,181.273,294.165,179.832z M141.882,183.328c0.003-10.869,9.254-19.714,20.621-19.717
	c5.548,0,10.751,2.075,14.652,5.843c3.844,3.714,5.96,8.637,5.959,13.862c-0.002,10.867-9.252,19.71-20.621,19.713l-0.004,6l0.001-6
	C151.127,203.028,141.882,194.189,141.882,183.328z M241.669,313H83.327v-15.752h158.342V313z M252.261,204.476
	c-14.867,15.86-32.45,42.5-34.137,80.772l-111.25-0.002c-1.687-38.271-19.271-64.91-34.139-80.771
	c-10.871-11.598-21.711-19.126-28.248-23.111L156.514,24.688l-0.033,127.477c-15.114,2.758-26.595,15.679-26.599,31.162
	c0,17.479,14.628,31.701,32.607,31.703c0,0,0.007,0,0.008,0c17.982-0.005,32.615-14.23,32.617-31.71
	c0.002-8.511-3.415-16.5-9.622-22.496c-4.713-4.552-10.609-7.53-17.012-8.677l0.033-127.417l111.995,156.635
	C273.972,185.35,263.133,192.878,252.261,204.476z"/>
</svg>